<svg width="189" height="27" viewBox="0 0 189 27" fill="none" xmlns="http://www.w3.org/2000/svg">
<path d="M34.084 19.9742C33.274 19.9742 32.509 19.8392 31.789 19.5692C31.075 19.2992 30.475 18.9002 29.989 18.3722C29.503 17.8442 29.2 17.1902 29.08 16.4102H30.565C30.739 17.1902 31.153 17.7812 31.807 18.1832C32.467 18.5792 33.223 18.7772 34.075 18.7772C34.723 18.7772 35.299 18.6842 35.803 18.4982C36.307 18.3122 36.703 18.0482 36.991 17.7062C37.285 17.3642 37.432 16.9652 37.432 16.5092C37.432 15.8912 37.237 15.3932 36.847 15.0152C36.463 14.6312 35.899 14.3492 35.155 14.1692L32.527 13.5392C31.573 13.3232 30.826 12.9542 30.286 12.4322C29.752 11.9042 29.482 11.2112 29.476 10.3532C29.476 9.62119 29.668 8.97619 30.052 8.41819C30.436 7.85419 30.97 7.41319 31.654 7.09519C32.338 6.77719 33.124 6.61819 34.012 6.61819C35.032 6.61819 35.887 6.79519 36.577 7.14919C37.267 7.50319 37.786 7.96519 38.134 8.53519C38.488 9.10519 38.668 9.70819 38.674 10.3442H37.207C37.147 9.72019 36.964 9.22819 36.658 8.86819C36.352 8.50219 35.965 8.24119 35.497 8.08519C35.035 7.92319 34.54 7.84219 34.012 7.84219C33.52 7.84219 33.04 7.93219 32.572 8.11219C32.104 8.28619 31.717 8.55019 31.411 8.90419C31.111 9.25819 30.961 9.70219 30.961 10.2362C30.961 10.7282 31.129 11.1302 31.465 11.4422C31.801 11.7482 32.413 12.0152 33.301 12.2432L35.848 12.8642C36.658 13.0502 37.282 13.3382 37.72 13.7282C38.158 14.1182 38.458 14.5562 38.62 15.0422C38.788 15.5222 38.872 16.0022 38.872 16.4822C38.872 17.1242 38.686 17.7092 38.314 18.2372C37.942 18.7652 37.399 19.1882 36.685 19.5062C35.971 19.8182 35.104 19.9742 34.084 19.9742ZM43.0834 6.78919V8.33719H41.6074V6.78919H43.0834ZM43.0384 10.4882V19.7942H41.6704V10.4882H43.0384ZM50.7391 11.5412H48.6331V17.5442C48.6331 17.9042 48.6661 18.1682 48.7321 18.3362C48.8041 18.4982 48.9271 18.6032 49.1011 18.6512C49.2811 18.6932 49.5301 18.7142 49.8481 18.7142H50.8021V19.6862C50.5441 19.7822 50.1061 19.8302 49.4881 19.8302C48.5941 19.8302 47.9911 19.6442 47.6791 19.2722C47.3731 18.8942 47.2201 18.3332 47.2201 17.5892V11.5412H45.7081V10.4882H47.2561L47.5891 7.80619H48.6331V10.4792H50.7391V11.5412ZM53.2584 19.7942V6.42019H54.6174V11.8562C54.8574 11.4602 55.2234 11.1122 55.7154 10.8122C56.2134 10.5062 56.8374 10.3532 57.5874 10.3532C58.1994 10.3532 58.7484 10.4672 59.2344 10.6952C59.7264 10.9172 60.1164 11.2322 60.4044 11.6402C60.6924 12.0422 60.8364 12.5192 60.8364 13.0712V19.7942H59.4324V13.3862C59.4324 12.7982 59.2314 12.3422 58.8294 12.0182C58.4274 11.6882 57.8964 11.5232 57.2364 11.5232C56.7804 11.5232 56.3574 11.5982 55.9674 11.7482C55.5774 11.8922 55.2624 12.1112 55.0224 12.4052C54.7824 12.6932 54.6624 13.0622 54.6624 13.5122V19.7942H53.2584ZM63.4511 6.78019H72.6491L72.6401 9.30919H66.5291V12.1172H71.7311V14.5832H66.5291V19.7942H63.4511V6.78019ZM77.3754 6.78019V9.44419H74.4324V6.78019H77.3754ZM77.3664 10.4882V19.7942H74.4414V10.4882H77.3664ZM79.5365 19.7942V10.4882H82.5605V11.7932C82.7645 11.4752 83.0645 11.1692 83.4605 10.8752C83.8625 10.5752 84.4295 10.4252 85.1615 10.4252C85.7195 10.4252 86.2445 10.5332 86.7365 10.7492C87.2345 10.9652 87.6395 11.3102 87.9515 11.7842C88.2635 12.2522 88.4195 12.8672 88.4195 13.6292V19.7942H85.3415V14.0342C85.3415 13.6262 85.2095 13.3202 84.9455 13.1162C84.6815 12.9062 84.3785 12.8012 84.0365 12.8012C83.6885 12.8012 83.3615 12.9002 83.0555 13.0982C82.7495 13.2902 82.5965 13.5782 82.5965 13.9622V19.7942H79.5365ZM93.8305 19.9742C92.5585 19.9742 91.5745 19.5362 90.8785 18.6602C90.1885 17.7842 89.8435 16.5932 89.8435 15.0872C89.8435 13.6232 90.1615 12.4622 90.7975 11.6042C91.4335 10.7402 92.3365 10.3082 93.5065 10.3082C94.0705 10.3082 94.5955 10.4222 95.0815 10.6502C95.5675 10.8782 95.9395 11.2112 96.1975 11.6492V6.42019H99.2665V19.7942H97.0795L96.7195 17.8862C96.5335 18.4682 96.2125 18.9632 95.7565 19.3712C95.3065 19.7732 94.6645 19.9742 93.8305 19.9742ZM94.5325 17.8052C95.0665 17.8052 95.4775 17.6012 95.7655 17.1932C96.0535 16.7852 96.1975 16.0772 96.1975 15.0692C96.1915 14.1752 96.0445 13.5242 95.7565 13.1162C95.4745 12.7022 95.0695 12.4952 94.5415 12.4952C94.0555 12.4952 93.6475 12.6902 93.3175 13.0802C92.9875 13.4642 92.8225 14.1272 92.8225 15.0692C92.8225 16.0412 92.9815 16.7402 93.2995 17.1662C93.6175 17.5922 94.0285 17.8052 94.5325 17.8052ZM103.89 15.8432C103.884 16.4792 104.034 16.9652 104.34 17.3012C104.646 17.6372 105.051 17.8052 105.555 17.8052C105.939 17.8052 106.278 17.7272 106.572 17.5712C106.872 17.4092 107.091 17.1302 107.229 16.7342H109.965C109.863 17.4122 109.593 17.9942 109.155 18.4802C108.723 18.9602 108.195 19.3292 107.571 19.5872C106.947 19.8452 106.302 19.9742 105.636 19.9742C104.688 19.9742 103.857 19.7792 103.143 19.3892C102.429 18.9992 101.871 18.4502 101.469 17.7422C101.067 17.0342 100.866 16.2032 100.866 15.2492C100.866 14.3432 101.049 13.5152 101.415 12.7652C101.781 12.0152 102.309 11.4182 102.999 10.9742C103.689 10.5302 104.52 10.3082 105.492 10.3082C106.476 10.3082 107.298 10.5152 107.958 10.9292C108.618 11.3372 109.113 11.9012 109.443 12.6212C109.779 13.3352 109.947 14.1542 109.947 15.0782V15.8432H103.89ZM103.881 14.0792H107.103C107.103 13.6232 106.968 13.2302 106.698 12.9002C106.428 12.5702 106.026 12.4052 105.492 12.4052C105.006 12.4052 104.613 12.5762 104.313 12.9182C104.019 13.2602 103.875 13.6472 103.881 14.0792ZM111.581 19.7942V10.4882H114.533V12.8732C114.749 12.1472 115.109 11.5382 115.613 11.0462C116.117 10.5542 116.768 10.3082 117.566 10.3082C117.716 10.3082 117.806 10.3172 117.836 10.3352V13.2422C117.806 13.2302 117.767 13.2212 117.719 13.2152C117.677 13.2092 117.632 13.2062 117.584 13.2062C116.804 13.1282 116.201 13.1672 115.775 13.3232C115.349 13.4732 115.052 13.7012 114.884 14.0072C114.722 14.3072 114.641 14.6432 114.641 15.0152V19.7942H111.581Z" fill="white"/>
<circle cx="18.3635" cy="6.40716" r="4.69036" transform="rotate(30 18.3635 6.40716)" fill="#F2938C"/>
<circle cx="6.40747" cy="13.0441" r="4.69036" transform="rotate(30 6.40747 13.0441)" fill="#FFBE2E"/>
<circle cx="18.593" cy="20.0798" r="4.69036" transform="rotate(30 18.593 20.0798)" fill="#00BDE3"/>
<path d="M5.69163 13.362L18.5881 5.62978L18.34 20.6646L5.69163 13.362Z" fill="#162E51"/>
</svg>
